<svg version="1.1" xmlns="http://www.w3.org/2000/svg" xmlns:xlink="http://www.w3.org/1999/xlink" width="900" height="600" viewBox="0,0,256,170.66251"><g fill="none" fill-rule="nonzero" stroke="none" stroke-width="1" stroke-linecap="butt" stroke-linejoin="miter" stroke-miterlimit="10" stroke-dasharray="" stroke-dashoffset="0" font-family="none" font-weight="none" font-size="none" text-anchor="none" style="mix-blend-mode: normal"><g transform="translate(0,-14.50667) scale(0.28444,0.28444)"><path d="M0,128l30,-4.7c30,-4.6 90,-14 150,3.7c60,17.7 120,62.3 180,62.8c60,0.5 120,-43.1 180,-55.3c60,-12.2 120,7.2 180,27.7c60,20.5 120,42.1 150,53l30,10.8v-226h-30c-30,0 -90,0 -150,0c-60,0 -120,0 -180,0c-60,0 -120,0 -180,0c-60,0 -120,0 -180,0c-60,0 -120,0 -150,0h-30z" fill="#faab68"></path><path d="M0,138l30,2.8c30,2.9 90,8.5 150,-1c60,-9.5 120,-34.1 180,-52.1c60,-18 120,-29.4 180,-30.2c60,-0.8 120,8.8 180,8.3c60,-0.5 120,-11.1 150,-16.5l30,-5.3v-44h-30c-30,0 -90,0 -150,0c-60,0 -120,0 -180,0c-60,0 -120,0 -180,0c-60,0 -120,0 -180,0c-60,0 -120,0 -150,0h-30z" fill="#f29248"></path></g></g></svg>